HIERARCHY
ROOT Hips
{
	OFFSET 0.000000 100.481300 0.000000
	CHANNELS 6 Xposition Yposition Zposition Xrotation Yrotation Zrotation
	JOINT Spine
	{
		OFFSET -0.279200 12.230698 -2.892100
		CHANNELS 3 Xrotation Yrotation Zrotation
		JOINT Spine1
		{
			OFFSET -0.325700 14.269203 -3.374200
			CHANNELS 3 Xrotation Yrotation Zrotation
			JOINT Spine2
			{
				OFFSET -0.372300 16.307602 -0.352600
				CHANNELS 3 Xrotation Yrotation Zrotation
				JOINT Neck
				{
					OFFSET -0.418800 17.814194 8.416900
					CHANNELS 3 Xrotation Yrotation Zrotation
					JOINT Head
					{
						OFFSET 0.000000 7.031097 3.806800
						CHANNELS 3 Xrotation Yrotation Zrotation
						JOINT HeadTop_End
						{
							OFFSET 0.000000 24.646606 12.978600
							CHANNELS 3 Xrotation Yrotation Zrotation
							End Site
							{
								OFFSET 0.000000 27.854965 0.000000
							}
						}
					}
				}
				JOINT LeftShoulder
				{
					OFFSET 16.952999 14.495407 -7.737500
					CHANNELS 3 Xrotation Yrotation Zrotation
					JOINT LeftArm
					{
						OFFSET 9.308998 -2.777710 0.208600
						CHANNELS 3 Xrotation Yrotation Zrotation
						JOINT LeftForeArm
						{
							OFFSET 29.972298 0.000000 0.000000
							CHANNELS 3 Xrotation Yrotation Zrotation
							JOINT LeftHand
							{
								OFFSET 26.026505 0.000000 0.000000
								CHANNELS 3 Xrotation Yrotation Zrotation
								JOINT LeftHandThumb1
								{
									OFFSET 12.240501 -7.147949 9.207150
									CHANNELS 3 Xrotation Yrotation Zrotation
									JOINT LeftHandThumb2
									{
										OFFSET 4.138618 -2.389435 2.389433
										CHANNELS 3 Xrotation Yrotation Zrotation
										JOINT LeftHandThumb3
										{
											OFFSET 2.726913 -1.574387 1.574386
											CHANNELS 3 Xrotation Yrotation Zrotation
											JOINT LeftHandThumb4
											{
												OFFSET 3.941010 -2.275345 2.275342
												CHANNELS 3 Xrotation Yrotation Zrotation
												End Site
												{
													OFFSET -0.005798 5.087799 0.009903
												}
											}
										}
									}
								}
								JOINT LeftHandIndex1
								{
									OFFSET 24.424698 -1.985611 5.953459
									CHANNELS 3 Xrotation Yrotation Zrotation
									JOINT LeftHandIndex2
									{
										OFFSET 6.426697 0.000000 0.000000
										CHANNELS 3 Xrotation Yrotation Zrotation
										JOINT LeftHandIndex3
										{
											OFFSET 5.337898 0.000000 0.000000
											CHANNELS 3 Xrotation Yrotation Zrotation
											JOINT LeftHandIndex4
											{
												OFFSET 4.409401 0.000000 0.000000
												CHANNELS 3 Xrotation Yrotation Zrotation
												End Site
												{
													OFFSET 0.000000 4.409363 0.014373
												}
											}
										}
									}
								}
								JOINT LeftHandMiddle1
								{
									OFFSET 23.810104 0.000000 0.000000
									CHANNELS 3 Xrotation Yrotation Zrotation
									JOINT LeftHandMiddle2
									{
										OFFSET 7.176498 0.000000 0.000000
										CHANNELS 3 Xrotation Yrotation Zrotation
										JOINT LeftHandMiddle3
										{
											OFFSET 6.774902 0.000000 0.000000
											CHANNELS 3 Xrotation Yrotation Zrotation
											JOINT LeftHandMiddle4
											{
												OFFSET 5.403328 0.000000 0.000000
												CHANNELS 3 Xrotation Yrotation Zrotation
												End Site
												{
													OFFSET -0.027702 5.403244 0.017414
												}
											}
										}
									}
								}
								JOINT LeftHandRing1
								{
									OFFSET 22.908401 -0.839279 -6.020567
									CHANNELS 3 Xrotation Yrotation Zrotation
									JOINT LeftHandRing2
									{
										OFFSET 6.337502 0.000000 0.000000
										CHANNELS 3 Xrotation Yrotation Zrotation
										JOINT LeftHandRing3
										{
											OFFSET 5.779297 0.000000 0.000000
											CHANNELS 3 Xrotation Yrotation Zrotation
											JOINT LeftHandRing4
											{
												OFFSET 4.965698 0.000000 0.000000
												CHANNELS 3 Xrotation Yrotation Zrotation
												End Site
												{
													OFFSET 0.000000 4.965668 0.016186
												}
											}
										}
									}
								}
								JOINT LeftHandPinky1
								{
									OFFSET 20.037003 -1.530319 -10.950146
									CHANNELS 3 Xrotation Yrotation Zrotation
									JOINT LeftHandPinky2
									{
										OFFSET 5.254700 0.000000 0.000000
										CHANNELS 3 Xrotation Yrotation Zrotation
										JOINT LeftHandPinky3
										{
											OFFSET 4.810204 0.000000 0.000000
											CHANNELS 3 Xrotation Yrotation Zrotation
											JOINT LeftHandPinky4
											{
												OFFSET 3.647202 0.000000 0.000000
												CHANNELS 3 Xrotation Yrotation Zrotation
												End Site
												{
													OFFSET 0.000000 3.647186 0.011889
												}
											}
										}
									}
								}
							}
						}
					}
				}
				JOINT RightShoulder
				{
					OFFSET -15.141001 14.495407 -7.737500
					CHANNELS 3 Xrotation Yrotation Zrotation
					JOINT RightArm
					{
						OFFSET -9.308998 -2.777710 0.208500
						CHANNELS 3 Xrotation Yrotation Zrotation
						JOINT RightForeArm
						{
							OFFSET -29.972300 0.000000 0.000000
							CHANNELS 3 Xrotation Yrotation Zrotation
							JOINT RightHand
							{
								OFFSET -26.026505 0.000000 0.000000
								CHANNELS 3 Xrotation Yrotation Zrotation
								JOINT RightHandThumb1
								{
									OFFSET -12.240601 -7.148026 9.207092
									CHANNELS 3 Xrotation Yrotation Zrotation
									JOINT RightHandThumb2
									{
										OFFSET -4.138618 -2.389435 2.389433
										CHANNELS 3 Xrotation Yrotation Zrotation
										JOINT RightHandThumb3
										{
											OFFSET -2.726974 -1.574417 1.574421
											CHANNELS 3 Xrotation Yrotation Zrotation
											JOINT RightHandThumb4
											{
												OFFSET -3.941010 -2.275345 2.275343
												CHANNELS 3 Xrotation Yrotation Zrotation
												End Site
												{
													OFFSET 0.005814 5.087799 0.009927
												}
											}
										}
									}
								}
								JOINT RightHandIndex1
								{
									OFFSET -24.424698 -1.985657 5.953444
									CHANNELS 3 Xrotation Yrotation Zrotation
									JOINT RightHandIndex2
									{
										OFFSET -6.426697 0.000000 0.000000
										CHANNELS 3 Xrotation Yrotation Zrotation
										JOINT RightHandIndex3
										{
											OFFSET -5.337898 0.000000 0.000000
											CHANNELS 3 Xrotation Yrotation Zrotation
											JOINT RightHandIndex4
											{
												OFFSET -4.409401 0.000000 0.000000
												CHANNELS 3 Xrotation Yrotation Zrotation
												End Site
												{
													OFFSET 0.000000 4.409363 0.014408
												}
											}
										}
									}
								}
								JOINT RightHandMiddle1
								{
									OFFSET -23.810097 0.000000 0.000000
									CHANNELS 3 Xrotation Yrotation Zrotation
									JOINT RightHandMiddle2
									{
										OFFSET -7.176498 0.000000 0.000000
										CHANNELS 3 Xrotation Yrotation Zrotation
										JOINT RightHandMiddle3
										{
											OFFSET -6.774902 0.000000 0.000000
											CHANNELS 3 Xrotation Yrotation Zrotation
											JOINT RightHandMiddle4
											{
												OFFSET -5.403328 0.000000 0.000000
												CHANNELS 3 Xrotation Yrotation Zrotation
												End Site
												{
													OFFSET 0.027702 5.403244 0.017457
												}
											}
										}
									}
								}
								JOINT RightHandRing1
								{
									OFFSET -22.908302 -0.839325 -6.020576
									CHANNELS 3 Xrotation Yrotation Zrotation
									JOINT RightHandRing2
									{
										OFFSET -6.337502 0.000000 0.000000
										CHANNELS 3 Xrotation Yrotation Zrotation
										JOINT RightHandRing3
										{
											OFFSET -5.779297 0.000000 0.000000
											CHANNELS 3 Xrotation Yrotation Zrotation
											JOINT RightHandRing4
											{
												OFFSET -4.965698 0.000000 0.000000
												CHANNELS 3 Xrotation Yrotation Zrotation
												End Site
												{
													OFFSET 0.000000 4.965668 0.016226
												}
											}
										}
									}
								}
								JOINT RightHandPinky1
								{
									OFFSET -20.037003 -1.530334 -10.950259
									CHANNELS 3 Xrotation Yrotation Zrotation
									JOINT RightHandPinky2
									{
										OFFSET -5.254700 0.000000 0.000000
										CHANNELS 3 Xrotation Yrotation Zrotation
										JOINT RightHandPinky3
										{
											OFFSET -4.810204 0.000000 0.000000
											CHANNELS 3 Xrotation Yrotation Zrotation
											JOINT RightHandPinky4
											{
												OFFSET -3.647202 0.000000 0.000000
												CHANNELS 3 Xrotation Yrotation Zrotation
												End Site
												{
													OFFSET 0.000000 3.647186 0.011917
												}
											}
										}
									}
								}
							}
						}
					}
				}
			}
		}
	}
	JOINT LeftUpLeg
	{
		OFFSET 15.427100 -6.655098 0.678600
		CHANNELS 3 Xrotation Yrotation Zrotation
		JOINT LeftLeg
		{
			OFFSET 4.081073 -39.591068 13.024000
			CHANNELS 3 Xrotation Yrotation Zrotation
			JOINT LeftFoot
			{
				OFFSET -4.081074 -37.707932 -15.979700
				CHANNELS 3 Xrotation Yrotation Zrotation
				JOINT LeftToeBase
				{
					OFFSET 5.346399 -15.068900 20.645000
					CHANNELS 3 Xrotation Yrotation Zrotation
					JOINT LeftToe_End
					{
						OFFSET 2.754700 0.931300 11.300900
						CHANNELS 3 Xrotation Yrotation Zrotation
						End Site
						{
							OFFSET 0.000000 11.669021 0.000000
						}
					}
				}
			}
		}
	}
	JOINT RightUpLeg
	{
		OFFSET -15.569500 -6.655098 0.678600
		CHANNELS 3 Xrotation Yrotation Zrotation
		JOINT RightLeg
		{
			OFFSET -4.081825 -39.591045 13.023800
			CHANNELS 3 Xrotation Yrotation Zrotation
			JOINT RightFoot
			{
				OFFSET 4.081824 -37.707954 -15.979600
				CHANNELS 3 Xrotation Yrotation Zrotation
				JOINT RightToeBase
				{
					OFFSET -5.346400 -15.068900 20.645000
					CHANNELS 3 Xrotation Yrotation Zrotation
					JOINT RightToe_End
					{
						OFFSET -2.754700 0.931300 11.300900
						CHANNELS 3 Xrotation Yrotation Zrotation
						End Site
						{
							OFFSET 0.000000 11.669021 0.000000
						}
					}
				}
			}
		}
	}
}
MOTION
Frames: 4
Frame Time: 0.033333
-0.470226 17.510704 -7.111885 88.763376 0.023356 -5.059328 1.580925 2.101791 -0.048022 1.831791 1.468796 0.098524 1.816210 1.488945 0.136349 -20.845280 -1.558444 3.909958 -29.576843 2.974447 -2.966085 -0.000000 0.000001 0.000000 0.428645 14.150082 -3.123662 8.863465 -7.345949 -25.380872 -0.000002 -121.998353 -0.000001 42.003205 11.053970 76.606794 3.377795 -15.591618 21.038513 16.616476 30.885627 7.470358 4.709545 -14.976117 38.022536 -0.000000 -0.000001 -0.000000 0.127620 1.425098 5.589593 0.022112 0.509082 -4.974082 0.022113 0.509073 -4.974070 0.000000 -0.000000 0.000001 0.145311 1.309857 6.418904 0.022112 0.509068 -4.974084 0.043314 0.711854 -6.963865 0.000000 0.000000 -0.000000 0.173060 1.128666 7.185176 0.014156 0.407451 -3.979229 0.031832 0.610555 -5.968928 -0.000000 -0.000000 -0.000000 0.124779 0.548170 10.690324 0.022112 0.509075 -4.974083 0.022112 0.509080 -4.974084 -0.000000 -0.000000 0.000000 2.595658 -8.013686 0.865921 5.220121 -1.167793 45.292019 0.000010 134.202548 -0.000004 31.820728 -18.235263 -66.669920 -8.354925 -1.612815 -27.543303 15.238603 0.853417 -4.423700 3.560851 -5.296570 -20.729588 0.000002 -0.000001 -0.000001 0.222972 -0.760114 -8.414802 0.017646 -0.405452 4.983571 0.017640 -0.405451 4.983476 0.000002 0.000000 -0.000001 0.278274 -0.553720 -9.805524 0.017646 -0.405472 4.983573 0.034559 -0.566936 6.976936 -0.000001 -0.000001 -0.000000 0.304306 -0.406471 -9.824020 0.011297 -0.324516 3.986837 0.025397 -0.486248 5.980127 0.000000 0.000001 -0.000001 0.142160 0.381734 -13.705970 0.017647 -0.405458 4.983575 0.017644 -0.405439 4.983578 0.000000 0.000001 0.000001 -0.535045 9.948172 6.311474 14.143427 6.278359 5.664930 -37.016466 7.836686 -5.852189 -47.084671 2.362033 -16.555122 0.000001 0.000001 -0.000000 -3.657397 -7.890834 -4.103701 14.206145 -10.479777 -6.568260 -8.227987 -4.574938 11.523070 -61.550441 -5.618129 27.734612 0.000001 -0.000001 -0.000000 
-0.493674 17.624779 -7.952484 87.899098 0.031338 -5.176943 1.830760 2.225350 -0.218885 2.001918 1.693527 0.052171 1.984575 1.713341 0.088032 -20.006703 -1.643654 4.071810 -28.403693 3.036262 -3.270183 -0.000002 -0.000000 0.000000 0.120931 14.526930 -0.988012 9.459299 -10.149001 -26.106301 -0.000033 -120.857738 -0.000021 41.498717 12.407942 77.431969 3.377792 -15.591614 21.038507 16.611961 30.890261 7.479814 4.703212 -14.960606 38.013513 -0.000000 -0.000000 0.000002 0.127623 1.425075 5.589593 0.022085 0.508786 -4.971308 0.022032 0.508160 -4.965220 0.000000 -0.000000 0.000000 0.145311 1.309835 6.418901 0.022087 0.508789 -4.971309 0.043225 0.711114 -6.956695 0.000000 -0.000000 0.000000 0.173061 1.128649 7.185174 0.014138 0.407215 -3.977010 0.031803 0.610265 -5.966132 0.000000 -0.000000 -0.000001 0.124777 0.548177 10.690324 0.022087 0.508796 -4.971307 0.022059 0.508470 -4.968159 -0.000000 -0.000000 -0.000000 2.366264 -8.383972 -1.354012 5.351756 -0.126554 47.415805 0.000019 132.857302 -0.000021 31.768934 -17.836969 -67.166776 -8.493841 -1.463255 -27.944117 14.697100 -1.863972 -4.317515 4.110267 -5.775919 -17.894867 -0.000000 -0.000001 0.000000 0.241174 -0.688962 -8.894563 0.023678 -0.469504 5.773461 0.019964 -0.431196 5.300876 -0.000001 -0.000000 0.000001 0.278276 -0.553717 -9.805519 0.016175 -0.388209 4.770910 0.033864 -0.561224 6.906508 -0.000000 -0.000000 0.000000 0.305283 -0.403293 -9.845838 0.010449 -0.312147 3.835020 0.029826 -0.526809 6.480904 -0.000000 -0.000000 0.000001 0.145972 0.400422 -13.828354 0.015804 -0.383787 4.716739 0.024787 -0.480400 5.907869 0.000001 0.000001 -0.000001 -0.506976 10.484271 5.774584 16.232189 5.390819 5.400076 -38.786906 9.567247 -4.697240 -48.179130 2.128921 -15.000774 0.000000 0.000001 0.000001 -4.669147 -8.271858 -4.898624 17.117400 -7.291755 -6.053249 -9.023792 -3.952479 11.639652 -67.173223 -7.440206 24.388295 0.000001 -0.000000 0.000000 
-0.497904 19.076744 -9.294792 86.953123 0.044890 -5.463903 1.777296 1.936888 -0.271780 2.158484 1.526569 0.030802 2.143785 1.547607 0.061281 -20.910148 -1.402869 3.647786 -26.432482 3.345650 -3.261924 -0.000002 0.000000 0.000000 0.443579 13.717555 -2.739148 7.849028 -11.636872 -22.358337 0.000003 -118.992906 -0.000000 39.119451 14.815626 76.596200 3.377792 -15.591607 21.038516 16.598555 30.903932 7.507853 4.684477 -14.914606 37.986777 0.000000 0.000000 0.000001 0.127622 1.425095 5.589595 0.022014 0.507948 -4.963086 0.021803 0.505496 -4.939013 -0.000000 0.000000 0.000000 0.145311 1.309859 6.418903 0.022015 0.507941 -4.963084 0.042961 0.708949 -6.935430 -0.000000 -0.000000 0.000001 0.173057 1.128676 7.185178 0.014092 0.406540 -3.970431 0.031713 0.609412 -5.957839 0.000000 0.000000 0.000000 0.124776 0.548200 10.690327 0.022014 0.507956 -4.963086 0.021905 0.506675 -4.950617 0.000001 -0.000000 0.000001 2.289090 -7.600803 -1.564663 1.496682 3.798113 44.836869 -0.000016 128.647405 0.000014 29.250753 -19.855348 -67.493539 -8.379145 -1.584623 -27.620464 12.610926 -5.431207 -6.339386 4.940599 -6.141313 -11.739636 0.000001 0.000000 -0.000001 0.250729 -0.653006 -9.137311 0.022445 -0.457196 5.621507 0.032309 -0.548239 6.745644 0.000001 0.000001 -0.000000 0.278270 -0.553741 -9.805522 0.014169 -0.363361 4.464948 0.040207 -0.611308 7.526199 -0.000000 0.000001 0.000000 0.317809 -0.363051 -10.121555 0.009234 -0.293490 3.605213 0.051087 -0.688645 8.484863 0.000001 0.000001 -0.000000 0.152228 0.431074 -14.029618 0.012752 -0.344781 4.236628 0.040044 -0.610055 7.510494 0.000000 -0.000000 -0.000001 -2.047259 10.184441 5.253199 19.954712 5.071165 5.227279 -41.321374 11.048598 -3.616283 -47.475945 1.990253 -14.178096 0.000000 -0.000001 -0.000001 -6.822631 -8.710866 -5.810532 20.827130 -2.730480 -5.105267 -11.262034 -3.789388 11.356771 -72.820349 -8.463054 20.070333 0.000001 -0.000000 0.000000 
-0.638362 20.860580 -11.227821 86.094603 0.066979 -5.382339 1.425445 1.400502 -0.260617 2.181099 1.109930 0.029544 2.171693 1.129165 0.053682 -23.001780 -1.097806 3.001852 -24.121809 3.153039 -3.182031 -0.000002 0.000000 -0.000000 0.954662 11.642338 -5.903080 5.178088 -11.662198 -17.179667 -0.000004 -116.822367 0.000007 36.104766 16.583013 74.567258 3.377793 -15.591604 21.038509 16.576499 30.926390 7.553959 4.653770 -14.838861 37.942811 0.000000 -0.000000 0.000001 0.127620 1.425115 5.589595 0.021895 0.506567 -4.949570 0.021424 0.501093 -4.895926 -0.000000 0.000000 -0.000001 0.145311 1.309861 6.418902 0.021893 0.506566 -4.949568 0.042527 0.705392 -6.900477 -0.000000 -0.000000 -0.000000 0.173060 1.128670 7.185175 0.014015 0.405448 -3.959618 0.031568 0.608023 -5.944209 0.000000 0.000000 -0.000001 0.124781 0.548165 10.690325 0.021894 0.506587 -4.949568 0.021650 0.503735 -4.921774 0.000000 -0.000000 0.000000 2.380273 -7.126786 -0.486381 -3.347560 9.315666 40.925428 0.000012 123.208157 0.000010 25.839861 -22.138347 -67.416481 -8.354939 -1.612853 -27.543294 9.737214 -9.688126 -9.682519 6.163687 -6.134599 -3.518504 -0.000000 0.000002 0.000001 0.259913 -0.619193 -9.365227 0.018880 -0.419344 5.154694 0.055750 -0.719208 8.864774 0.000002 -0.000000 -0.000002 0.278269 -0.553739 -9.805520 0.011132 -0.322107 3.957263 0.050414 -0.684158 8.429241 0.000000 -0.000002 -0.000001 0.335630 -0.307314 -10.503072 0.007463 -0.263859 3.240850 0.091972 -0.921940 11.393118 -0.000000 -0.000001 0.000000 0.158426 0.461490 -14.229140 0.008737 -0.285409 3.505689 0.065408 -0.778636 9.603879 0.000001 0.000000 -0.000001 -4.520483 9.597121 5.650796 24.673099 4.675054 4.768354 -44.630806 11.391932 -3.505126 -46.139260 1.764826 -13.401420 0.000001 -0.000000 0.000000 -9.555134 -8.756485 -6.269460 25.473696 0.692753 -4.350719 -14.557283 -3.894146 10.418595 -76.217616 -8.341043 16.774745 0.000000 0.000000 -0.000000 
